<svg xmlns="http://www.w3.org/2000/svg" xmlns:xlink="http://www.w3.org/1999/xlink" width="85.82" height="86" viewBox="0 0 85.82 86">
  <defs>
    <linearGradient id="linear-gradient" x1="0.5" y1="1" x2="0.5" gradientUnits="objectBoundingBox">
      <stop offset="0" stop-color="#9f2fff"/>
      <stop offset="1" stop-color="#0bb1d3"/>
    </linearGradient>
  </defs>
  <path id="bolsa-de-dinero" d="M34.47,50.672l2.738.414a19.294,19.294,0,0,0-.216,2.586l-2.768-.043A22.029,22.029,0,0,1,34.47,50.672Zm9.768-15.038a21.785,21.785,0,0,0-9.1,12.072l2.652.792a19.02,19.02,0,0,1,7.948-10.535L47.5,36.829,46,34.5Zm36.9,20.86a22.051,22.051,0,0,0,.144-2.51l0-.36-2.768.051,0,.307a19.059,19.059,0,0,1-.126,2.194ZM65.61,72.013l.894,2.62A21.79,21.79,0,0,0,80.55,59.6l-2.676-.714A19.024,19.024,0,0,1,65.61,72.013Zm21.21-18.03a27.381,27.381,0,0,1-27.35,27.35h-3.1V86.87H7.921A6.929,6.929,0,0,1,1,79.949V52.265a6.929,6.929,0,0,1,6.921-6.921H17.61V56.418H28.8c-.071-.81-.119-1.622-.119-2.435a27.233,27.233,0,0,1,12.56-23.005l3.941-2.533a4.133,4.133,0,0,1,.973-7.963l-6.4-6.4v-.573a6.1,6.1,0,0,1,5.333-6.041L47.268,7.2,46.253,4.153l9.368-1.874,2.2,3.3L61.349.87l7.844,1.961L67.865,7.149l2.548.318a6.1,6.1,0,0,1,5.333,6.041v.573l-6.4,6.4a4.133,4.133,0,0,1,.973,7.963l3.941,2.533A27.233,27.233,0,0,1,86.82,53.983ZM67.038,9.834l-3.26,10.595h1.705l7.451-7.452a3.328,3.328,0,0,0-2.865-2.763ZM49.872,6.253,54.6,20.429h6.286L65.689,4.807,62.461,4l-4.775,6.367L54.347,5.358Zm-7.3,6.723,7.451,7.452h1.658L48.159,9.873l-2.725.341A3.328,3.328,0,0,0,42.569,12.976Zm2.725,11.605a1.386,1.386,0,0,0,1.384,1.384H68.825a1.384,1.384,0,1,0,0-2.768H46.678A1.386,1.386,0,0,0,45.294,24.581ZM3.768,52.265a4.158,4.158,0,0,0,4.153,4.153h6.921V48.112H7.921A4.158,4.158,0,0,0,3.768,52.265ZM14.42,84.1a15.19,15.19,0,0,1,0-24.915h-6.5A6.884,6.884,0,0,1,3.768,57.8v22.15A4.158,4.158,0,0,0,7.921,84.1Zm-3.73-12.458A12.458,12.458,0,1,0,23.147,59.186,12.472,12.472,0,0,0,10.689,71.644ZM53.6,59.186H31.874a15.19,15.19,0,0,1,0,24.915H53.6Zm2.768,8.305h2.768a4.153,4.153,0,0,0,0-8.305,6.852,6.852,0,0,1-2.768-.587ZM84.052,53.983A24.482,24.482,0,0,0,72.763,33.306l-7.112-4.572h-15.8L42.74,33.306A24.482,24.482,0,0,0,31.452,53.983c0,.814.055,1.626.134,2.435H53.635a6.849,6.849,0,0,1-1.42-4.153,6.934,6.934,0,0,1,5.537-6.781V42.576H60.52v2.768h5.537v6.921H63.289V48.112H59.136a4.153,4.153,0,0,0,0,8.305,6.921,6.921,0,0,1,0,13.842H56.368v8.305h3.1A24.61,24.61,0,0,0,84.052,53.983ZM21.763,81.333h2.768V78.565a4.153,4.153,0,1,0,0-8.305H21.763a1.384,1.384,0,1,1,0-2.768h4.153v1.384h2.768V64.723H24.531V61.954H21.763v2.768a4.153,4.153,0,1,0,0,8.305h2.768a1.384,1.384,0,0,1,0,2.768H20.379V74.412H17.61v4.153h4.153Zm26.3-12.458h2.768V61.954H43.91v2.768h4.153Zm2.768,5.537H48.063v4.153H43.91v2.768h6.921Z" transform="translate(-1 -0.87)" fill="url(#linear-gradient)"/>
</svg>
