<svg xmlns="http://www.w3.org/2000/svg" xmlns:xlink="http://www.w3.org/1999/xlink" width="85.132" height="86" viewBox="0 0 85.132 86">
  <defs>
    <linearGradient id="linear-gradient" x1="0.5" y1="1" x2="0.5" gradientUnits="objectBoundingBox">
      <stop offset="0" stop-color="#9f2fff"/>
      <stop offset="1" stop-color="#0bb1d3"/>
    </linearGradient>
  </defs>
  <path id="finanzas" d="M62.032,20.419V19.032a1.388,1.388,0,0,0-1.387-1.387H57.871a4.166,4.166,0,0,1-4.161-4.161V9.323h4.161V6.548h2.774V9.323a4.166,4.166,0,0,1,4.161,4.161H62.032A1.388,1.388,0,0,0,60.645,12.1H56.484v1.387a1.388,1.388,0,0,0,1.387,1.387h2.774a4.166,4.166,0,0,1,4.161,4.161v4.161H60.645v2.774H57.871V23.194a4.166,4.166,0,0,1-4.161-4.161h2.774a1.388,1.388,0,0,0,1.387,1.387Zm-49.59,1.16a12.391,12.391,0,0,1,2.436-.828,11.1,11.1,0,1,1,14.244-.332H42.768a16.89,16.89,0,0,1-.155-2.158v-.616a16.645,16.645,0,1,1,33.29,0v.616a16.532,16.532,0,0,1-4.876,11.77l-1.818,1.82a4.16,4.16,0,0,1-1.628,7.988,8.323,8.323,0,0,1-16.645,0,4.161,4.161,0,0,1-1.628-7.99l-1.72-1.72H32.9a1.388,1.388,0,0,0-1.387,1.387v9.135l8.213,8.213,1.878,9.388-9.388-1.878-.7-.7v3.587H47.348l3.587,3.587L63.419,50.361l4.161,4.161,7.748-7.748-4.913-4.913,15.716-3.93L82.2,53.649,77.29,48.735,73.129,52.9V87H25.968a5.512,5.512,0,0,1-4.161-1.917,5.525,5.525,0,0,1-9.71-3.631V46.774a6.943,6.943,0,0,1-6.935-6.935V32.9a12.505,12.505,0,0,1,.412-3.174L2.555,26.711a5.31,5.31,0,1,1,7.51-7.51Zm63.4,21.786L80.7,48.222l1.62-6.476ZM36.49,49.548,19.032,32.09l-3.587,3.587,1.387,1.387h4.281a4.86,4.86,0,0,1,4.855,4.855A4.81,4.81,0,0,1,24.8,45.036l8.1,8.1ZM17.071,30.129l-2.2-2.2-3.587,3.587,2.2,2.2ZM4.516,24.75l4.806,4.8,3.587-3.587L8.1,21.161a2.536,2.536,0,0,0-4.329,1.795,2.524,2.524,0,0,0,.742,1.794ZM12.1,44h9.016a2.081,2.081,0,0,0,0-4.161H10.71V37.064h2.2L8,32.151c-.019.251-.061.5-.061.752v6.935A4.166,4.166,0,0,0,12.1,44Zm33.29,18.032H39.839V84.226h5.548Zm16.645-6.361-5.548,5.548V84.226h5.548Zm5.548,2.774-2.774-2.774V84.226h5.548V55.671ZM50.935,66.768l-2.774-2.774V84.226H53.71V63.994ZM31.516,62.032V81.451a5.491,5.491,0,0,1-.771,2.774h6.32V62.032ZM28.742,52.9l-6.324-6.324a4.779,4.779,0,0,1-1.305.2H14.871V81.451a2.774,2.774,0,1,0,5.548,0V56.821A5.516,5.516,0,0,1,22.045,52.9L23.6,51.342,25.561,53.3l-1.555,1.555a2.761,2.761,0,0,0-.813,1.963V81.452a2.774,2.774,0,1,0,5.548,0Zm9.33,1.818-.47-2.354-1.884,1.884ZM64.806,39.839H53.71a5.548,5.548,0,1,0,11.1,0Zm4.161-4.161a1.388,1.388,0,0,0-1.387-1.387H50.935a1.387,1.387,0,1,0,0,2.774H67.581A1.388,1.388,0,0,0,68.968,35.677ZM45.387,18.261a13.779,13.779,0,0,0,4.063,9.808l1.821,1.823a8.126,8.126,0,0,1,1.212,1.624H66.033a8.087,8.087,0,0,1,1.212-1.624l1.821-1.823a13.779,13.779,0,0,0,4.063-9.808v-.616a13.871,13.871,0,1,0-27.742,0ZM21.806,20.419A8.323,8.323,0,1,0,13.484,12.1,8.331,8.331,0,0,0,21.806,20.419Zm-7.231,3.293L28.742,37.877V31.516A4.166,4.166,0,0,1,32.9,27.355H45.319a16.483,16.483,0,0,1-1.963-4.161H17.645a9.719,9.719,0,0,0-3.07.519Z" transform="translate(-1 -1)" fill="url(#linear-gradient)"/>
</svg>
