<svg xmlns="http://www.w3.org/2000/svg" xmlns:xlink="http://www.w3.org/1999/xlink" width="67.333" height="67.333" viewBox="0 0 67.333 67.333">
  <defs>
    <clipPath id="clip-path">
      <path id="path4083" d="M0-682.665H67.333v67.333H0Z" transform="translate(0 0)" fill="#fff" stroke="#707070" stroke-width="1.333"/>
    </clipPath>
  </defs>
  <g id="g4081" transform="translate(0 682.665)" clip-path="url(#clip-path)">
    <g id="g4087" transform="translate(17.448 -655.025)">
      <path id="path4089" d="M-64.017-62.7a1.315,1.315,0,0,1-1.315-1.315,4.38,4.38,0,0,0-4.375-4.375,1.315,1.315,0,0,1-1.315-1.315,1.315,1.315,0,0,1,1.315-1.315A7.013,7.013,0,0,1-62.7-64.017,1.315,1.315,0,0,1-64.017-62.7Z" transform="translate(71.022 71.022)" fill="#fff"/>
    </g>
    <g id="g4091" transform="translate(56.819 -655.025)">
      <path id="path4093" d="M-12.018-62.7a1.315,1.315,0,0,1-1.315-1.315,7.013,7.013,0,0,1,7.005-7.005,1.315,1.315,0,0,1,1.315,1.315,1.315,1.315,0,0,1-1.315,1.315A4.38,4.38,0,0,0-10.7-64.017,1.315,1.315,0,0,1-12.018-62.7Z" transform="translate(13.333 71.022)" fill="#fff"/>
    </g>
    <g id="g4095" transform="translate(56.819 -673.37)">
      <path id="path4097" d="M-6.328-5.013a7.013,7.013,0,0,1-7.005-7.005,1.315,1.315,0,0,1,1.315-1.315A1.315,1.315,0,0,1-10.7-12.018,4.38,4.38,0,0,0-6.328-7.643,1.315,1.315,0,0,1-5.013-6.328,1.315,1.315,0,0,1-6.328-5.013Z" transform="translate(13.333 13.333)" fill="#fff"/>
    </g>
    <g id="g4099" transform="translate(41.294 -647.931)">
      <path id="path4101" fill="#fff"/>
    </g>
    <g id="g4103" transform="translate(39.979 -673.459)">
      <path id="path4105" d="M8.468,13.51H-6.1a1.315,1.315,0,0,1-1.315-1.315A1.315,1.315,0,0,1-6.1,10.88H8.468a.82.82,0,0,0,.819-.819V-9.884a.82.82,0,0,0-.819-.819H-12.018a1.315,1.315,0,0,1-1.315-1.315,1.315,1.315,0,0,1,1.315-1.315H8.468a3.453,3.453,0,0,1,3.449,3.449V10.061A3.453,3.453,0,0,1,8.468,13.51Z" transform="translate(13.333 13.333)" fill="#fff"/>
    </g>
    <g id="g4107" transform="translate(17.359 -662.799)">
      <path id="path4109" d="M-164.65-134.562h-14.568a3.453,3.453,0,0,1-3.449-3.449V-149.43a1.315,1.315,0,0,1,1.315-1.315,1.315,1.315,0,0,1,1.315,1.315v11.419a.82.82,0,0,0,.819.819h14.568a1.315,1.315,0,0,1,1.315,1.315A1.315,1.315,0,0,1-164.65-134.562Z" transform="translate(182.666 150.745)" fill="#fff"/>
    </g>
    <g id="g4111" transform="translate(34.016 -667.746)">
      <path id="path4113" d="M-9.107-32.487a7.674,7.674,0,0,1-7.187-4.9,1.315,1.315,0,0,1,.745-1.7,1.315,1.315,0,0,1,1.7.745,5.059,5.059,0,0,0,4.738,3.231A5.092,5.092,0,0,0-4.021-40.2,5.092,5.092,0,0,0-9.107-45.29a5.08,5.08,0,0,0-4.5,2.711,1.315,1.315,0,0,1-1.777.547,1.315,1.315,0,0,1-.547-1.777A7.7,7.7,0,0,1-9.107-47.92,7.725,7.725,0,0,1-1.391-40.2,7.725,7.725,0,0,1-9.107-32.487Z" transform="translate(16.385 47.92)" fill="#fff"/>
    </g>
    <g id="g4115" transform="translate(54.968 -660.03)">
      <path id="path4117" fill="#fff"/>
    </g>
    <g id="g4119" transform="translate(11.573 -680.561)">
      <path id="path4121" d="M8.728,11.329a4.555,4.555,0,0,1-.781-.068L3.2,10.435A31.7,31.7,0,0,1-9.276,5.341h-2.742a1.315,1.315,0,0,1-1.315-1.315,1.315,1.315,0,0,1,1.315-1.315h3.156a1.315,1.315,0,0,1,.761.242A29.039,29.039,0,0,0,3.647,7.844L8.4,8.67A1.922,1.922,0,0,0,9.657,5.095L2.891,1.353A4.046,4.046,0,0,1,.8-2.187,4.05,4.05,0,0,1,4.849-6.232H15.29L11.424-9.213A7.2,7.2,0,0,0,7.051-10.7h-19.07a1.315,1.315,0,0,1-1.315-1.315,1.315,1.315,0,0,1,1.315-1.315H7.051A9.841,9.841,0,0,1,13.03-11.3l6.922,5.338a1.315,1.315,0,0,1,.442,1.466,1.315,1.315,0,0,1-1.245.891H4.849A1.417,1.417,0,0,0,3.434-2.187a1.415,1.415,0,0,0,.73,1.238L10.93,2.793a4.552,4.552,0,0,1-2.2,8.536Z" transform="translate(13.333 13.333)" fill="#fff"/>
    </g>
    <path id="path4123" d="M12.888-658.993H1.315A1.315,1.315,0,0,1,0-660.309V-681.35a1.315,1.315,0,0,1,1.315-1.315H12.888A1.315,1.315,0,0,1,14.2-681.35v21.041A1.315,1.315,0,0,1,12.888-658.993ZM2.63-661.624h8.943v-18.411H2.63Z" transform="translate(0 0)" fill="#fff"/>
    <g id="g4125" transform="translate(7.107 -637.286)">
      <path id="path4127" d="M-432.516-172.87H-458.28a18.374,18.374,0,0,1-13.078-5.417l-7.145-7.144a4.548,4.548,0,0,1-1.341-3.249,4.549,4.549,0,0,1,1.356-3.243,4.589,4.589,0,0,1,6.461.015l6.393,6.395a10.043,10.043,0,0,0,7.149,2.962h7.1a1.315,1.315,0,0,1,1.315,1.315,1.315,1.315,0,0,1-1.315,1.315h-7.1a12.656,12.656,0,0,1-9.009-3.732l-6.393-6.395a1.953,1.953,0,0,0-2.75-.007,1.936,1.936,0,0,0-.577,1.38,1.936,1.936,0,0,0,.571,1.383l7.145,7.145A15.761,15.761,0,0,0-458.28-175.5h25.764a1.315,1.315,0,0,1,1.315,1.315A1.315,1.315,0,0,1-432.516-172.87Z" transform="translate(479.844 193.246)" fill="#fff"/>
    </g>
    <g id="g4129" transform="translate(24.444 -639.142)">
      <path id="path4131" d="M-172.637-125.4h-14.32a4.576,4.576,0,0,1-4.57-4.571,4.576,4.576,0,0,1,4.57-4.57h7.691l1.323-1.571a12.537,12.537,0,0,1,9.608-4.469,12.485,12.485,0,0,1,7.378,2.4l.191.139a1.315,1.315,0,0,1,.292,1.837,1.315,1.315,0,0,1-1.837.292l-.191-.139a9.871,9.871,0,0,0-5.834-1.894,9.912,9.912,0,0,0-7.6,3.533l-1.717,2.039a1.315,1.315,0,0,1-1.006.468h-8.3a1.942,1.942,0,0,0-1.94,1.94,1.943,1.943,0,0,0,1.94,1.94h14.32a1.315,1.315,0,0,1,1.315,1.315A1.315,1.315,0,0,1-172.637-125.4Z" transform="translate(191.528 140.582)" fill="#fff"/>
    </g>
    <g id="g4133" transform="translate(53.13 -639.004)">
      <path id="path4135" d="M-117.778-202.995h-11.573a1.315,1.315,0,0,1-1.315-1.315v-21.041a1.315,1.315,0,0,1,1.315-1.315h11.573a1.315,1.315,0,0,1,1.315,1.315v21.041A1.315,1.315,0,0,1-117.778-202.995Zm-10.258-2.63h8.943v-18.411h-8.943Z" transform="translate(130.666 226.666)" fill="#fff"/>
    </g>
  </g>
</svg>
