<svg xmlns="http://www.w3.org/2000/svg" width="819.559" height="202.614" viewBox="0 0 819.559 202.614"><g id="Group_9" data-name="Group 9" transform="translate(-657.048 470.115)"><g id="Group_1" data-name="Group 1" transform="translate(-463 -492)"><path id="Path_1" data-name="Path 1" d="M1171.686,174.986l82.984-83.04,17.941,17.958a22.88,22.88,0,0,1,0,31.555l-82.985,83.04-17.94-17.958A22.88,22.88,0,0,1,1171.686,174.986Z" fill="#fff"></path><path id="Path_2" data-name="Path 2" d="M1193.093,101.391l-52.628-52.7,20.256-20.273a21.023,21.023,0,0,1,30.468,0l52.627,52.7-20.256,20.274A21.023,21.023,0,0,1,1193.093,101.391Z" fill="#fff"></path><path id="Path_3" data-name="Path 3" d="M1126.358,129.658l36.732-36.7,18.711,18.729a22.88,22.88,0,0,1,0,31.556l-36.731,36.7-18.712-18.73A22.88,22.88,0,0,1,1126.358,129.658Z" fill="#fff"></path></g><g id="Group_3" data-name="Group 3" transform="translate(-463 -492)"><path id="Path_17" data-name="Path 17" d="M1343.955,85.779h45.672V63.888h-48.551a23.19,23.19,0,0,0-23.19,23.19v94.1h26.069V133.382h45.787v-21.89h-45.787Z" fill="#fff"></path><rect id="Rectangle_2" data-name="Rectangle 2" width="24.899" height="87.253" transform="translate(1403.65 93.923)" fill="#fff"></rect><path id="Path_18" data-name="Path 18" d="M1407.332,85.333a13.181,13.181,0,0,0,17.368,0,11.366,11.366,0,0,0,3.682-8.963,11.369,11.369,0,0,0-3.682-8.961,13.181,13.181,0,0,0-17.368,0,11.362,11.362,0,0,0-3.682,8.961A11.359,11.359,0,0,0,1407.332,85.333Z" fill="#fff"></path><path id="Path_19" data-name="Path 19" d="M1515.122,100.127a28.861,28.861,0,0,0-12.132-8.518Q1495.331,88.6,1483.8,88.6a138.682,138.682,0,0,0-21.682,1.634,143.024,143.024,0,0,0-16.863,3.529v87.415h25.64V111.313q2.406-.342,5.505-.6t5.851-.257q8.946,0,12.218,5.162t3.27,17.552v48.01h25.639V130.069a69.608,69.608,0,0,0-1.893-16.865A33.251,33.251,0,0,0,1515.122,100.127Z" fill="#fff"></path><path id="Path_20" data-name="Path 20" d="M1609.591,100.127a28.855,28.855,0,0,0-12.132-8.518Q1589.8,88.6,1578.272,88.6a138.67,138.67,0,0,0-21.681,1.634,143.094,143.094,0,0,0-16.864,3.529v87.415h25.64V111.313q2.408-.342,5.506-.6t5.851-.257q8.946,0,12.218,5.162t3.269,17.552v48.01h25.64V130.069a69.657,69.657,0,0,0-1.893-16.865A33.24,33.24,0,0,0,1609.591,100.127Z" fill="#fff"></path><path id="Path_21" data-name="Path 21" d="M1843.644,159.369a47.7,47.7,0,0,1-8.272.752q-8.358,0-11.113-4.68t-2.757-12.534V109.324h29.912V88.6H1821.5V64.137l-24.9,4.011v75.095a70.451,70.451,0,0,0,1.587,15.541,28.607,28.607,0,0,0,5.6,11.947,26.471,26.471,0,0,0,10.7,7.688q6.681,2.758,16.878,2.757a58.488,58.488,0,0,0,13.536-1.337,70.45,70.45,0,0,0,10.026-3.175l-3.509-19.385A42.546,42.546,0,0,1,1843.644,159.369Z" fill="#fff"></path><path id="Path_22" data-name="Path 22" d="M1669.27,88.6a42.105,42.105,0,0,0-15.625,3.008,39.235,39.235,0,0,0-13.452,8.857,43.865,43.865,0,0,0-9.442,14.622,53.719,53.719,0,0,0-3.593,20.47,57.278,57.278,0,0,0,2.757,18.048,38.139,38.139,0,0,0,8.523,14.455,40.165,40.165,0,0,0,14.539,9.609,55.393,55.393,0,0,0,20.637,3.509,88.148,88.148,0,0,0,9.359-.5q4.675-.5,8.773-1.254a69.969,69.969,0,0,0,7.437-1.754c.72-.216,1.376-.433,2-.648V155.442a50.69,50.69,0,0,1-10.777,3.09,71.932,71.932,0,0,1-13.452,1.255q-10.7,0-17.045-4.513a16.537,16.537,0,0,1-7.186-12.2h56.483q.164-2.005.335-4.6t.166-4.762q0-22.222-10.862-33.673T1669.27,88.6Zm-16.544,37.432a35.608,35.608,0,0,1,1.587-6.266,16.83,16.83,0,0,1,3.092-5.431,14.876,14.876,0,0,1,5.013-3.761,16.743,16.743,0,0,1,7.186-1.42,15.786,15.786,0,0,1,7.269,1.5,15.176,15.176,0,0,1,4.846,3.843,15.5,15.5,0,0,1,2.841,5.348,25.778,25.778,0,0,1,1.086,6.183Z" fill="#fff"></path><path id="Path_23" data-name="Path 23" d="M1937.758,109.767a26.588,26.588,0,0,0-6.3-11.424,28.717,28.717,0,0,0-11.845-7.225q-7.4-2.52-18.482-2.52-4.373,0-8.654.42t-8.148,1.008q-3.867.591-7.141,1.343c-.816.189-1.564.372-2.278.553V112.9l.01.063a54.342,54.342,0,0,1,10.753-2.6,85.837,85.837,0,0,1,12.6-.924q9.578,0,13.442,3.865a13.857,13.857,0,0,1,3.864,10.248V125.9a38.789,38.789,0,0,0-6.133-1.091,79.4,79.4,0,0,0-8.652-.421,66.973,66.973,0,0,0-13.946,1.429,37.615,37.615,0,0,0-11.929,4.621A23.9,23.9,0,0,0,1866.6,139a25.77,25.77,0,0,0-3.11,13.106,31.016,31.016,0,0,0,2.689,13.609,22.669,22.669,0,0,0,7.729,8.989,33.723,33.723,0,0,0,12.013,4.956,73.5,73.5,0,0,0,15.541,1.513,143.836,143.836,0,0,0,23.188-1.6q9.576-1.595,14.953-2.774V124.722A56.389,56.389,0,0,0,1937.758,109.767ZM1915.3,161.289a47.7,47.7,0,0,1-5.347.5q-3.347.168-7.02.167-6.852,0-10.778-2.256t-3.927-8.1a8.837,8.837,0,0,1,1.336-5.013,9.317,9.317,0,0,1,3.677-3.175,17.264,17.264,0,0,1,5.432-1.588,49.563,49.563,0,0,1,6.6-.418,50.449,50.449,0,0,1,5.514.335q3.009.336,4.513.668Z" fill="#fff"></path><path id="Path_24" data-name="Path 24" d="M1763.853,88.6c-.092,0-.181,0-.273,0s-.151,0-.228,0c-1.292,0-2.549.054-3.79.134a44.876,44.876,0,0,0-15.26,3.542,46.318,46.318,0,0,0-4.8,2.49,41.467,41.467,0,0,0-9.4,7.453,42.9,42.9,0,0,0-8.94,14.7,51.8,51.8,0,0,0-3.092,17.966,62,62,0,0,0,2.591,18.3,38.091,38.091,0,0,0,8.188,14.623,39.037,39.037,0,0,0,14.288,9.775q8.687,3.593,20.721,3.593a69.622,69.622,0,0,0,21.724-3.222V156.277a41.188,41.188,0,0,1-9.524,2.674,60.973,60.973,0,0,1-9.693.836q-12.7,0-17.8-6.518t-5.1-18.381q0-11.2,5.431-18.049a17.174,17.174,0,0,1,8.946-5.877l.07-.02q.5-.126,1.024-.236a35.619,35.619,0,0,1,6.955-.705c.16,0,.306-.015.468-.015a60.973,60.973,0,0,1,9.693.836,43.535,43.535,0,0,1,6.334,1.514c1.094.35,2.166.727,3.19,1.161V91.818a71.018,71.018,0,0,0-7.353-1.885A71.737,71.737,0,0,0,1763.853,88.6Z" fill="#fff"></path></g></g></svg>