<svg xmlns="http://www.w3.org/2000/svg" width="69.501" height="69.512" viewBox="0 0 69.501 69.512">
  <g id="interaccion" transform="translate(-0.332)">
    <path id="Path_830" data-name="Path 830" d="M273.4,45h-28.18a1.358,1.358,0,1,0,0,2.715H273.4a1.358,1.358,0,1,0,0-2.715Zm0,0" transform="translate(-217.081 -40.112)" fill="#4810f5"/>
    <path id="Path_831" data-name="Path 831" d="M109.639,45a1.357,1.357,0,1,0,.96.4A1.368,1.368,0,0,0,109.639,45Zm0,0" transform="translate(-96.225 -40.112)" fill="#4810f5"/>
    <path id="Path_832" data-name="Path 832" d="M63.7,45a1.357,1.357,0,1,0,.96.4A1.368,1.368,0,0,0,63.7,45Zm0,0" transform="translate(-55.277 -40.112)" fill="#4810f5"/>
    <path id="Path_833" data-name="Path 833" d="M155.576,45a1.357,1.357,0,1,0,.96.4A1.365,1.365,0,0,0,155.576,45Zm0,0" transform="translate(-137.173 -40.112)" fill="#4810f5"/>
    <path id="Path_834" data-name="Path 834" d="M224.525,467.894a1.357,1.357,0,1,0,.4.96A1.368,1.368,0,0,0,224.525,467.894Zm0,0" transform="translate(-197.777 -416.721)" fill="#4810f5"/>
    <path id="Path_835" data-name="Path 835" d="M64.408,36.679c0-.031,0-.061,0-.092V4.616A4.621,4.621,0,0,0,59.8,0H4.948A4.621,4.621,0,0,0,.332,4.616V48.875a4.621,4.621,0,0,0,4.616,4.616H20.561a1.358,1.358,0,1,0,0-2.715H4.948a1.9,1.9,0,0,1-1.9-1.9V12.49H61.7V33.962l-7.568-7.568a5.027,5.027,0,0,0-8.407,2.254,5.023,5.023,0,0,0-7.409,4.584c-.055,0-.11,0-.166,0a5.033,5.033,0,0,0-4.789,3.5l-6.633-6.633a5.023,5.023,0,0,0-7.1,7.1L37.01,54.586l-3.56-.863A5.173,5.173,0,0,0,27.2,57.434,5.225,5.225,0,0,0,30.51,63.7l13.578,4.734A19.376,19.376,0,0,0,64.408,36.679ZM3.062,9.775H3.047V4.616a1.9,1.9,0,0,1,1.9-1.9H59.8a1.9,1.9,0,0,1,1.9,1.9V9.775Zm59.186,52.14a16.753,16.753,0,0,1-17.266,3.951L31.4,61.132a2.5,2.5,0,0,1-1.585-3,2.472,2.472,0,0,1,2.392-1.848,2.536,2.536,0,0,1,.6.072l8.26,2a1.358,1.358,0,0,0,1.28-2.279L21.541,35.278a2.308,2.308,0,1,1,3.264-3.264L34.6,41.8h0l7.043,7.043a1.358,1.358,0,0,0,1.92-1.92l-7.043-7.043h0A2.308,2.308,0,1,1,39.78,36.62l7.41,7.409a1.358,1.358,0,0,0,1.92-1.92L41.7,34.7a2.308,2.308,0,1,1,3.263-3.264L47.025,33.5h0l5.416,5.416a1.358,1.358,0,0,0,1.92-1.92l-5.416-5.416a2.308,2.308,0,1,1,3.264-3.264L62.249,38.352A16.682,16.682,0,0,1,62.248,61.916Zm0,0" transform="translate(0)" fill="#4810f5"/>
    <path id="Path_836" data-name="Path 836" d="M196.469,192.312v-2.923a1.358,1.358,0,1,0-2.715,0v2.923a1.358,1.358,0,1,0,2.715,0Zm0,0" transform="translate(-172.414 -167.609)" fill="#4810f5"/>
    <path id="Path_837" data-name="Path 837" d="M88.881,294.262a1.358,1.358,0,0,0,0,2.715H91.8a1.358,1.358,0,0,0,0-2.715Zm0,0" transform="translate(-77.721 -262.301)" fill="#4810f5"/>
    <path id="Path_838" data-name="Path 838" d="M98.585,200.451a1.358,1.358,0,0,0,.96-2.318l-5.073-5.073a1.358,1.358,0,0,0-1.92,1.92l5.073,5.073A1.354,1.354,0,0,0,98.585,200.451Zm0,0" transform="translate(-81.849 -171.737)" fill="#4810f5"/>
  </g>
</svg>
