<svg xmlns="http://www.w3.org/2000/svg" xmlns:xlink="http://www.w3.org/1999/xlink" width="87" height="87" viewBox="0 0 87 87"><defs><linearGradient id="linear-gradient" x1="0.5" y1="1" x2="0.5" gradientUnits="objectBoundingBox"><stop offset="0" stop-color="#9f2fff"></stop><stop offset="1" stop-color="#0bb1d3"></stop></linearGradient></defs><path id="tecnologia" d="M82.79,72.968h-1.4V26.661a7.024,7.024,0,0,0-7.016-7.016h-4.21v2.806h4.21a4.215,4.215,0,0,1,4.21,4.21V72.968H8.419V26.661a4.215,4.215,0,0,1,4.21-4.21h4.21V19.645h-4.21a7.024,7.024,0,0,0-7.016,7.016V72.968H4.21A4.215,4.215,0,0,0,0,77.177,9.835,9.835,0,0,0,9.823,87H77.177A9.835,9.835,0,0,0,87,77.177,4.215,4.215,0,0,0,82.79,72.968Zm-47.71,2.806H51.919v1.4a1.4,1.4,0,0,1-1.4,1.4H36.484a1.4,1.4,0,0,1-1.4-1.4Zm29.468,8.419H61.742V81.387h2.806Zm11.226,0H72.968V81.387h2.806Zm2.806-.142V78.581H70.161v5.613H67.355V78.581H58.935v5.613H9.823a7.024,7.024,0,0,1-7.016-7.016,1.4,1.4,0,0,1,1.4-1.4H32.274v1.4a4.215,4.215,0,0,0,4.21,4.21H50.516a4.215,4.215,0,0,0,4.21-4.21v-1.4H82.79a1.4,1.4,0,0,1,1.4,1.4,7.029,7.029,0,0,1-5.613,6.874ZM30.871,28.065V25.258H14.032a2.809,2.809,0,0,0-2.806,2.806v39.29a2.809,2.809,0,0,0,2.806,2.806H72.968a2.809,2.809,0,0,0,2.806-2.806V28.065a2.809,2.809,0,0,0-2.806-2.806H56.129v2.806H72.968v39.29H67.355V59.316l-3.836-1.229a21.133,21.133,0,0,0-1.29-3.128l1.841-3.577-7.4-7.4-3.577,1.841a21.2,21.2,0,0,0-3.128-1.29l-1.232-3.839H38.266L37.037,44.53a21.133,21.133,0,0,0-3.128,1.29l-3.577-1.841-7.4,7.4,1.841,3.577a21.2,21.2,0,0,0-1.29,3.128l-3.838,1.232v8.039H14.032V28.065Zm0,36.484A12.63,12.63,0,1,1,55.78,67.355H49.925a7.016,7.016,0,1,0-12.851,0H31.222A12.638,12.638,0,0,1,30.871,64.548Zm8.419,0A4.21,4.21,0,1,1,46.6,67.355H40.395a4.2,4.2,0,0,1-1.1-2.806ZM22.452,61.362,25.758,60.3l.2-.725a18.088,18.088,0,0,1,1.618-3.925L27.948,55l-1.586-3.079,4.507-4.507L33.948,49l.658-.368a18.087,18.087,0,0,1,3.925-1.618l.725-.2,1.057-3.3h6.372l1.058,3.306.725.2a18.087,18.087,0,0,1,3.925,1.618l.658.368,3.079-1.586,4.507,4.507L59.052,55l.368.658a18.087,18.087,0,0,1,1.618,3.925l.2.725,3.306,1.057v5.993H58.67a15.436,15.436,0,1,0-30.341,0H22.452Zm7.016-47.329V0H12.629V14.032h7.016v8.419H33.677V37.887h2.806V19.645H22.452V14.032ZM15.435,2.806H26.661v8.419H15.435Zm2.806,2.806h5.613V8.419H18.242Zm16.839,8.419H42.1V37.887H44.9V14.032h7.016V0H35.081ZM37.887,2.806H49.113v8.419H37.887Zm2.806,2.806h5.613V8.419H40.694Zm22.452,0h5.613V8.419H63.145ZM50.516,19.645V37.887h2.806V22.452H67.355V14.032h7.016V0H57.532V14.032h7.016v5.613ZM60.339,2.806H71.565v8.419H60.339Z" fill="url(#linear-gradient)"></path></svg>